#!OML:ASF E:\Style4\Style4.ASF
:FULLY-SPECIFIED
:DEGREES
1631
root -0.0373292 17.2604 -2.86857 12.2542 6.54649 4.9776
lowerback 20.2425 1.58039 -3.19513
upperback 15.4576 1.64011 3.5609
thorax 5.44033 0.397699 5.40759
lowerneck 8.59641 -13.1764 -9.36249
upperneck 27.0677 -17.941 2.54193
head 8.23825 -8.94009 1.48379
rclavicle -1.74931e-014 9.54166e-015
rhumerus 51.6751 7.01099 -1172.58
rradius 6.86656
rwrist 1133.23
rhand 31.099 6.74306
rfingers 7.12502
rthumb 54.6922 -11.616
lclavicle -1.74931e-014 9.54166e-015
lhumerus 63.7922 20.9819 30.2952
lradius 118.367
lwrist 46.0597
lhand 9.17688 30.1617
lfingers 7.12502
lthumb 34.3452 56.8682
rfemur -42.7731 -10.5511 16.049
rtibia 48.2391
rfoot -15.7958 -18.1465
rtoes -8.51322
lfemur -40.9033 -0.215904 -24.493
ltibia 41.2051
lfoot -11.8457 5.25832
ltoes -13.1275
1632
root -0.0341949 17.2774 -2.86183 12.2877 6.52871 4.89705
lowerback 20.0519 1.52296 -3.18327
upperback 15.4085 1.57061 3.56939
thorax 5.4872 0.362291 5.42258
lowerneck 8.70768 -13.1533 -9.35588
upperneck 26.8604 -17.9192 2.55387
head 8.14599 -8.93511 1.50267
rclavicle -1.11319e-014 -1.11319e-014
rhumerus 51.9846 7.06325 -1172.63
rradius 6.94093
rwrist 1133.59
rhand 29.4785 7.56226
rfingers 7.12502
rthumb 53.2375 -11.7786
lclavicle -1.11319e-014 -1.11319e-014
lhumerus 63.505 20.9669 30.2255
lradius 118.374
lwrist 46.023
lhand 9.15834 29.7447
lfingers 7.12502
lthumb 34.3276 56.4551
rfemur -42.6081 -10.5048 16.1203
rtibia 47.9378
rfoot -15.7486 -18.1229
rtoes -8.30283
lfemur -40.7457 -0.255566 -24.3916
ltibia 40.8902
lfoot -11.7565 5.34574
ltoes -13.3025
1633
root -0.031084 17.2946 -2.85497 12.2595 6.45116 4.85617
lowerback 19.9676 1.5496 -3.16806
upperback 15.3721 1.60761 3.55408
thorax 5.48279 0.383463 5.3914
lowerneck 8.67415 -13.1826 -9.4126
upperneck 26.8365 -17.975 2.62166
head 8.15932 -8.96263 1.52516
rclavicle -3.18055e-014 3.97569e-015
rhumerus 52.3682 6.92235 -1172.67
rradius 6.97435
rwrist 1133.91
rhand 27.9582 8.32975
rfingers 7.12502
rthumb 51.8622 -11.8574
lclavicle -3.18055e-014 3.97569e-015
lhumerus 63.6718 20.6099 30.2373
lradius 118.099
lwrist 45.6333
lhand 9.27393 29.3887
lfingers 7.12502
lthumb 34.4374 56.0743
rfemur -42.3899 -10.3983 16.1282
rtibia 47.6361
rfoot -15.6061 -18.1634
rtoes -8.66921
lfemur -40.5017 -0.264594 -24.3451
ltibia 40.5747
lfoot -11.6575 5.49182
ltoes -13.7228
1634
root -0.0286379 17.3092 -2.84808 12.2253 6.36162 4.91437
lowerback 19.9428 1.62052 -3.07486
upperback 15.3543 1.71265 3.45745
thorax 5.46307 0.450881 5.21578
lowerneck 8.50281 -13.2315 -9.46606
upperneck 26.9171 -18.0683 2.77821
head 8.24251 -8.99738 1.55891
rclavicle -1.11319e-014 -1.59028e-014
rhumerus 52.8636 6.543 -1172.73
rradius 7.03099
rwrist 1134.06
rhand 26.5938 8.92156
rfingers 7.12502
rthumb 50.6203 -11.9693
lclavicle -1.11319e-014 -1.59028e-014
lhumerus 64.0702 20.459 30.3208
lradius 118.027
lwrist 45.3578
lhand 9.24988 29.39
lfingers 7.12502
lthumb 34.4145 56.0808
rfemur -42.1738 -10.326 16.0263
rtibia 47.3499
rfoot -15.491 -18.157
rtoes -8.87748
lfemur -40.2437 -0.272896 -24.3996
ltibia 40.2885
lfoot -11.5849 5.49931
ltoes -13.1061
1635
root -0.0253001 17.3217 -2.84253 12.2374 6.31251 4.95707
lowerback 19.893 1.65147 -2.92146
upperback 15.3192 1.77543 3.34967
thorax 5.44258 0.502981 5.00053
lowerneck 8.34523 -13.3042 -9.29088
upperneck 26.8528 -18.1507 2.75794
head 8.23092 -9.02098 1.51251
rclavicle 3.49861e-014 -1.51076e-014
rhumerus 53.3101 6.20934 -1172.83
rradius 7.17735
rwrist 1134.14
rhand 25.1194 9.42346
rfingers 7.12502
rthumb 49.2708 -12.1739
lclavicle 3.49861e-014 -1.51076e-014
lhumerus 64.4389 20.4647 30.4237
lradius 118.1
lwrist 45.2174
lhand 9.22127 29.6639
lfingers 7.12502
lthumb 34.3874 56.3608
rfemur -42.0112 -10.2855 15.9494
rtibia 47.0689
rfoot -15.4046 -18.1431
rtoes -8.82259
lfemur -40.0591 -0.281378 -24.4533
ltibia 40.0171
lfoot -11.5525 5.54752
ltoes -13.1964
1636
root -0.022627 17.334 -2.83897 12.2634 6.27676 4.90202
lowerback 19.8591 1.68429 -2.73468
upperback 15.2422 1.8439 3.28893
thorax 5.36527 0.559471 4.81533
lowerneck 8.28471 -13.38 -9.14454
upperneck 26.7442 -18.26 2.82131
head 8.20103 -9.05685 1.5029
rclavicle -1.11319e-014 -7.15625e-015
rhumerus 53.6756 5.93154 -1172.93
rradius 7.34426
rwrist 1134.3
rhand 23.3702 9.94927
rfingers 7.12502
rthumb 47.6607 -12.4203
lclavicle -1.11319e-014 -7.15625e-015
lhumerus 64.6892 20.4585 30.5206
lradius 118.298
lwrist 45.2395
lhand 9.13589 30.1547
lfingers 7.12502
lthumb 34.3063 56.87
rfemur -41.8614 -10.2397 16.0044
rtibia 46.7753
rfoot -15.2997 -18.1433
rtoes -8.82754
lfemur -39.9338 -0.329987 -24.3783
ltibia 39.7562
lfoot -11.5271 5.66877
ltoes -13.0323
